# xmcd CD database file
#
# Track frame offsets:
#	151
#	92392
#	164065
#	237039
#
# Disc length: 4337 seconds
#
# Revision: 0
# Processed by: cddbd v1.5.1PL0 Copyright (c) Steve Scherf et al.
# Submitted via: CDex 1.51
#
DISCID=2510ef04
DTITLE=United States Air Force Orchestra, Washington D.C. - Duke Ellington - Symphonic Portrait
DYEAR=1998
DGENRE=Jazz
TTITLE0=Black, Brown and Beige Suite
TTITLE1=New World A-Comin'
TTITLE2=Harlem
TTITLE3=Three Black Kings
EXTD=YEAR: 1998
EXTT0=
EXTT1=
EXTT2=
EXTT3=
PLAYORDER=
